<?xml version="1.0" encoding="UTF-8"?>
<svg id="_レイヤー_1" data-name="レイヤー 1" xmlns="http://www.w3.org/2000/svg" xmlns:xlink="http://www.w3.org/1999/xlink" viewBox="0 0 495.39 366.94">
  <defs>
    <style>
      .cls-1 {
        stroke: url(#_名称未設定グラデーション_794);
        stroke-width: 4.25px;
      }

      .cls-1, .cls-2, .cls-3, .cls-4, .cls-5, .cls-6 {
        fill: none;
        stroke-miterlimit: 10;
      }

      .cls-2 {
        stroke: url(#_名称未設定グラデーション_786);
        stroke-width: 11.34px;
      }

      .cls-3 {
        stroke: url(#_名称未設定グラデーション_794-7);
      }

      .cls-3, .cls-4 {
        stroke-width: 4.82px;
      }

      .cls-4 {
        stroke: url(#_名称未設定グラデーション_794-9);
      }

      .cls-5 {
        stroke: url(#_名称未設定グラデーション_794-5);
        stroke-width: 3.69px;
      }

      .cls-7 {
        fill: url(#_名称未設定グラデーション_794-6);
      }

      .cls-8 {
        fill: url(#_名称未設定グラデーション_794-4);
      }

      .cls-9 {
        fill: url(#_名称未設定グラデーション_794-8);
      }

      .cls-10 {
        fill: url(#_名称未設定グラデーション_794-2);
      }

      .cls-11 {
        fill: url(#_名称未設定グラデーション_3);
      }

      .cls-12 {
        fill: #334c9f;
      }

      .cls-6 {
        stroke: url(#_名称未設定グラデーション_794-3);
        stroke-width: 1.42px;
      }

      .cls-13 {
        fill: url(#_名称未設定グラデーション_794);
      }
    </style>
    <radialGradient id="_名称未設定グラデーション_3" data-name="名称未設定グラデーション 3" cx="411.26" cy="45.28" fx="411.26" fy="45.28" r="23.21" gradientUnits="userSpaceOnUse">
      <stop offset=".21" stop-color="#334c9f"/>
      <stop offset="1" stop-color="#334c9f"/>
    </radialGradient>
    <linearGradient id="_名称未設定グラデーション_786" data-name="名称未設定グラデーション 786" x1="411.9" y1="314.22" x2="411.9" y2="185.49" gradientUnits="userSpaceOnUse">
      <stop offset=".17" stop-color="#d192be"/>
      <stop offset=".27" stop-color="#cc8fbd"/>
      <stop offset=".38" stop-color="#be89ba"/>
      <stop offset=".5" stop-color="#a87fb5"/>
      <stop offset=".62" stop-color="#8871af"/>
      <stop offset=".74" stop-color="#5f5fa7"/>
      <stop offset=".86" stop-color="#334c9f"/>
    </linearGradient>
    <linearGradient id="_名称未設定グラデーション_794" data-name="名称未設定グラデーション 794" x1="307.86" y1="176.04" x2="307.86" y2="83.12" gradientUnits="userSpaceOnUse">
      <stop offset=".17" stop-color="#b884b2"/>
      <stop offset=".27" stop-color="#9b77ad"/>
      <stop offset=".44" stop-color="#6e65a7"/>
      <stop offset=".59" stop-color="#4d57a2"/>
      <stop offset=".71" stop-color="#3a4fa0"/>
      <stop offset=".8" stop-color="#334c9f"/>
    </linearGradient>
    <linearGradient id="_名称未設定グラデーション_794-2" data-name="名称未設定グラデーション 794" x1="102.57" y1="305.45" x2="102.57" y2="206.09" xlink:href="#_名称未設定グラデーション_794"/>
    <linearGradient id="_名称未設定グラデーション_794-3" data-name="名称未設定グラデーション 794" x1="102.57" y1="305.45" x2="102.57" y2="206.09" xlink:href="#_名称未設定グラデーション_794"/>
    <linearGradient id="_名称未設定グラデーション_794-4" data-name="名称未設定グラデーション 794" x1="104.86" y1="174.65" x2="104.86" y2="25.59" xlink:href="#_名称未設定グラデーション_794"/>
    <linearGradient id="_名称未設定グラデーション_794-5" data-name="名称未設定グラデーション 794" x1="104.86" y1="174.65" x2="104.86" y2="25.59" xlink:href="#_名称未設定グラデーション_794"/>
    <linearGradient id="_名称未設定グラデーション_794-6" data-name="名称未設定グラデーション 794" x1="214.49" y1="294.31" x2="214.49" y2="237.1" xlink:href="#_名称未設定グラデーション_794"/>
    <linearGradient id="_名称未設定グラデーション_794-7" data-name="名称未設定グラデーション 794" x1="214.49" y1="294.31" x2="214.49" y2="237.1" xlink:href="#_名称未設定グラデーション_794"/>
    <linearGradient id="_名称未設定グラデーション_794-8" data-name="名称未設定グラデーション 794" x1="296.48" y1="303.22" x2="296.48" y2="232.7" xlink:href="#_名称未設定グラデーション_794"/>
    <linearGradient id="_名称未設定グラデーション_794-9" data-name="名称未設定グラデーション 794" x1="296.48" y1="303.22" x2="296.48" y2="232.7" xlink:href="#_名称未設定グラデーション_794"/>
  </defs>
  <polygon class="cls-11" points="411.26 22.66 419.62 36.17 435.05 39.94 424.78 52.06 425.96 67.9 411.26 61.88 396.57 67.9 397.74 52.06 387.48 39.94 402.91 36.17 411.26 22.66"/>
  <polygon class="cls-12" points="352.69 52.66 365.87 59.3 378.98 52.52 372.34 65.7 379.12 78.81 365.94 72.18 352.83 78.95 359.46 65.77 352.69 52.66"/>
  <polygon class="cls-12" points="469.7 52.03 463.07 65.21 469.84 78.32 456.66 71.69 443.55 78.46 450.19 65.28 443.41 52.17 456.59 58.81 469.7 52.03"/>
  <path class="cls-2" d="M413.62,308.5s-.39.05-1.45.05c-1.45,0-1.33,0-1.33,0M413.23,308.54s7.67-.65,12.7-6.05c7.66-8.22,15.46-30.09,5.44-61.25-9.74-30.3-32.28-48.46-53.97-49.82-18.97-1.19-41.81,12.87-43.23,42.15-1.27,26.05,10.97,36.82,19.14,40.11,5.58,2.25,13.63.8,16.34-6.62,6.71-18.34-11.57-27.48-11.57-27.48M352.51,243.17c1.1,6.78,8.39,7.29,11.52,3.37,2.45-3.07-13.14-13.37-11.52-3.37ZM465.73,239.29s-18.23,9.25-11.42,27.55c2.76,7.4,10.81,8.82,16.38,6.53,8.15-3.34,20.33-14.17,18.93-40.21-1.58-29.26-24.49-43.21-43.46-41.91-21.69,1.48-44.12,19.76-53.7,50.11-9.85,31.21-1.93,53.04,5.77,61.22,4.42,4.69,10.85,5.75,12.39,5.94.22.03.34.04.34.04M459.82,246.28c3.15,3.9,10.44,3.36,11.5-3.43,1.56-10.01-13.97.38-11.5,3.43Z"/>
  <g>
    <g>
      <g>
        <path class="cls-13" d="M190.66,135.21c-1.76,0-3.28-.63-4.41-1.76-1.13-1.13-1.76-2.65-1.76-4.41v-42.09c0-2.39,1.26-3.53,3.53-3.53,2.39,0,3.65,1.13,3.65,3.53v40.07c0,.63.38,1.01,1.01,1.01,1.76,0,2.52.76,2.52,2.52,0,3.15-1.51,4.66-4.54,4.66ZM217.88,174.27c-1.26,1.26-2.65,1.76-4.41,1.76-1.26,0-2.27-.38-3.15-1.39-1.01-.88-1.39-2.02-1.39-3.28,0-1.64.88-2.52,2.52-2.52.63,0,1.01-.38,1.01-1.01v-49.65c0-2.27,1.26-3.53,3.53-3.53,2.39,0,3.65,1.26,3.65,3.53v51.66c0,1.64-.63,3.15-1.76,4.41Z"/>
        <path class="cls-13" d="M318.42,159.4c-1.13,1.26-2.65,1.76-4.41,1.76-3.02,0-4.54-1.39-4.54-4.41,0-1.89.88-2.77,2.52-2.77.76,0,1.01-.38,1.01-1.01v-29.49c0-3.91-1.89-5.8-5.67-5.8h-6.93c-3.28,0-4.91,1.89-4.91,5.8v9.58c0,8.95-4.79,13.48-14.37,13.48h-14.49c-9.58,0-14.37-4.79-14.37-14.24v-7.43c0-9.45,4.54-14.24,13.73-14.24h18.27c2.14,0,3.4-1.26,3.78-3.78s1.64-3.78,3.78-3.78c1.89,0,3.15,1.26,3.65,3.78s1.76,3.78,3.91,3.78h6.43c9.45,0,14.24,4.79,14.24,14.24l.13,30.12c0,1.76-.63,3.28-1.76,4.41ZM288.31,123.49c0-1.64-.5-3.02-1.64-4.16-1.01-1.13-2.39-1.64-4.03-1.64h-17.52c-1.64,0-2.9.5-4.03,1.64-1.01,1.13-1.64,2.52-1.64,4.16v10.21c0,1.64.63,3.02,1.64,4.16,1.13,1.13,2.39,1.64,4.03,1.64h17.52c1.64,0,3.02-.5,4.03-1.64,1.13-1.13,1.64-2.52,1.64-4.16v-10.21Z"/>
        <path class="cls-13" d="M360.56,141.64c-.83.83-1.89,1.18-3.07,1.18-1.65,0-2.95-.47-4.13-1.53-1.06-1.06-1.65-2.48-1.65-4.13v-29.85c0-2.24,1.06-3.42,3.3-3.42s3.42,1.18,3.42,3.42v27.97c0,.59.24.94.94.94,1.53,0,2.36.83,2.36,2.36,0,1.18-.47,2.24-1.18,3.07ZM429.59,107.19c-1.06,1.18-2.48,1.65-4.13,1.65h-7.08c-2.24,0-3.3,1.18-3.3,3.3v31.27c0,2.24,1.06,3.3,3.3,3.3h2.6c2.24,0,3.42,1.06,3.42,3.19,0,2.36-1.06,3.42-3.3,3.42h-2.71c-2.24,0-3.3,1.06-3.3,3.3v2.6c0,2.6-.83,4.6-2.36,6.25-1.53,1.65-3.66,2.36-6.14,2.36h-3.54c-2.36,0-4.48-.83-6.14-2.6-1.77-1.65-2.6-3.78-2.6-6.25v-3.54c0-2.36.83-4.48,2.48-6.14,1.65-1.77,3.66-2.6,6.02-2.6h2.36c2.24,0,3.3-1.06,3.3-3.3v-31.27c0-2.12-1.06-3.3-3.3-3.3h-11.68c-1.65,0-3.07-.47-4.13-1.65-1.18-1.06-1.65-2.48-1.65-4.13,0-2.83,1.42-4.25,4.37-4.25,1.53,0,2.36.83,2.36,2.36,0,.59.35.94.94.94h9.79c2.24,0,3.3-1.06,3.3-3.3v-12.39c0-2.24,1.06-3.3,3.3-3.3s3.3,1.06,3.3,3.3v12.39c0,2.24,1.06,3.3,3.3,3.3h5.19c.71,0,.94-.35.94-.94,0-1.53.83-2.36,2.36-2.36,2.83,0,4.37,1.42,4.37,4.25,0,1.65-.59,3.07-1.65,4.13ZM408.46,156.63c0-2.24-1.06-3.3-3.3-3.3h-.83c-2.24,0-3.3,1.06-3.3,3.3v1.18c0,2.24,1.06,3.3,3.3,3.3h.83c2.24,0,3.3-1.06,3.3-3.3v-1.18Z"/>
      </g>
      <g>
        <path class="cls-1" d="M190.66,135.21c-1.76,0-3.28-.63-4.41-1.76-1.13-1.13-1.76-2.65-1.76-4.41v-42.09c0-2.39,1.26-3.53,3.53-3.53,2.39,0,3.65,1.13,3.65,3.53v40.07c0,.63.38,1.01,1.01,1.01,1.76,0,2.52.76,2.52,2.52,0,3.15-1.51,4.66-4.54,4.66ZM217.88,174.27c-1.26,1.26-2.65,1.76-4.41,1.76-1.26,0-2.27-.38-3.15-1.39-1.01-.88-1.39-2.02-1.39-3.28,0-1.64.88-2.52,2.52-2.52.63,0,1.01-.38,1.01-1.01v-49.65c0-2.27,1.26-3.53,3.53-3.53,2.39,0,3.65,1.26,3.65,3.53v51.66c0,1.64-.63,3.15-1.76,4.41Z"/>
        <path class="cls-1" d="M318.42,159.4c-1.13,1.26-2.65,1.76-4.41,1.76-3.02,0-4.54-1.39-4.54-4.41,0-1.89.88-2.77,2.52-2.77.76,0,1.01-.38,1.01-1.01v-29.49c0-3.91-1.89-5.8-5.67-5.8h-6.93c-3.28,0-4.91,1.89-4.91,5.8v9.58c0,8.95-4.79,13.48-14.37,13.48h-14.49c-9.58,0-14.37-4.79-14.37-14.24v-7.43c0-9.45,4.54-14.24,13.73-14.24h18.27c2.14,0,3.4-1.26,3.78-3.78s1.64-3.78,3.78-3.78c1.89,0,3.15,1.26,3.65,3.78s1.76,3.78,3.91,3.78h6.43c9.45,0,14.24,4.79,14.24,14.24l.13,30.12c0,1.76-.63,3.28-1.76,4.41ZM288.31,123.49c0-1.64-.5-3.02-1.64-4.16-1.01-1.13-2.39-1.64-4.03-1.64h-17.52c-1.64,0-2.9.5-4.03,1.64-1.01,1.13-1.64,2.52-1.64,4.16v10.21c0,1.64.63,3.02,1.64,4.16,1.13,1.13,2.39,1.64,4.03,1.64h17.52c1.64,0,3.02-.5,4.03-1.64,1.13-1.13,1.64-2.52,1.64-4.16v-10.21Z"/>
        <path class="cls-1" d="M360.56,141.64c-.83.83-1.89,1.18-3.07,1.18-1.65,0-2.95-.47-4.13-1.53-1.06-1.06-1.65-2.48-1.65-4.13v-29.85c0-2.24,1.06-3.42,3.3-3.42s3.42,1.18,3.42,3.42v27.97c0,.59.24.94.94.94,1.53,0,2.36.83,2.36,2.36,0,1.18-.47,2.24-1.18,3.07ZM429.59,107.19c-1.06,1.18-2.48,1.65-4.13,1.65h-7.08c-2.24,0-3.3,1.18-3.3,3.3v31.27c0,2.24,1.06,3.3,3.3,3.3h2.6c2.24,0,3.42,1.06,3.42,3.19,0,2.36-1.06,3.42-3.3,3.42h-2.71c-2.24,0-3.3,1.06-3.3,3.3v2.6c0,2.6-.83,4.6-2.36,6.25-1.53,1.65-3.66,2.36-6.14,2.36h-3.54c-2.36,0-4.48-.83-6.14-2.6-1.77-1.65-2.6-3.78-2.6-6.25v-3.54c0-2.36.83-4.48,2.48-6.14,1.65-1.77,3.66-2.6,6.02-2.6h2.36c2.24,0,3.3-1.06,3.3-3.3v-31.27c0-2.12-1.06-3.3-3.3-3.3h-11.68c-1.65,0-3.07-.47-4.13-1.65-1.18-1.06-1.65-2.48-1.65-4.13,0-2.83,1.42-4.25,4.37-4.25,1.53,0,2.36.83,2.36,2.36,0,.59.35.94.94.94h9.79c2.24,0,3.3-1.06,3.3-3.3v-12.39c0-2.24,1.06-3.3,3.3-3.3s3.3,1.06,3.3,3.3v12.39c0,2.24,1.06,3.3,3.3,3.3h5.19c.71,0,.94-.35.94-.94,0-1.53.83-2.36,2.36-2.36,2.83,0,4.37,1.42,4.37,4.25,0,1.65-.59,3.07-1.65,4.13ZM408.46,156.63c0-2.24-1.06-3.3-3.3-3.3h-.83c-2.24,0-3.3,1.06-3.3,3.3v1.18c0,2.24,1.06,3.3,3.3,3.3h.83c2.24,0,3.3-1.06,3.3-3.3v-1.18Z"/>
      </g>
    </g>
    <g>
      <path class="cls-10" d="M155.85,302.44c-1.88,2.16-4.38,3.02-7.3,3.02-5,0-7.51-2.37-7.51-7.54,0-3.23,1.46-4.74,4.17-4.74,1.25,0,1.67-.65,1.67-1.72v-50.44c0-6.68-3.13-9.92-9.38-9.92h-11.47c-5.42,0-8.13,3.23-8.13,9.92v16.38c0,15.3-7.92,23.06-23.77,23.06h-23.98c-15.85,0-23.77-8.19-23.77-24.36v-12.72c0-16.17,7.51-24.36,22.73-24.36h30.24c3.54,0,5.63-2.16,6.26-6.47.63-4.31,2.71-6.47,6.26-6.47,3.13,0,5.21,2.16,6.05,6.47.83,4.31,2.92,6.47,6.46,6.47h10.63c15.64,0,23.56,8.19,23.56,24.36l.21,51.52c0,3.02-1.04,5.6-2.92,7.54ZM106.01,241c0-2.8-.83-5.17-2.71-7.11-1.67-1.94-3.96-2.8-6.67-2.8h-28.99c-2.71,0-4.8.86-6.67,2.8-1.67,1.94-2.71,4.31-2.71,7.11v17.46c0,2.8,1.04,5.17,2.71,7.11,1.88,1.94,3.96,2.8,6.67,2.8h28.99c2.71,0,5-.86,6.67-2.8,1.88-1.94,2.71-4.31,2.71-7.11v-17.46Z"/>
      <path class="cls-6" d="M155.85,302.44c-1.88,2.16-4.38,3.02-7.3,3.02-5,0-7.51-2.37-7.51-7.54,0-3.23,1.46-4.74,4.17-4.74,1.25,0,1.67-.65,1.67-1.72v-50.44c0-6.68-3.13-9.92-9.38-9.92h-11.47c-5.42,0-8.13,3.23-8.13,9.92v16.38c0,15.3-7.92,23.06-23.77,23.06h-23.98c-15.85,0-23.77-8.19-23.77-24.36v-12.72c0-16.17,7.51-24.36,22.73-24.36h30.24c3.54,0,5.63-2.16,6.26-6.47.63-4.31,2.71-6.47,6.26-6.47,3.13,0,5.21,2.16,6.05,6.47.83,4.31,2.92,6.47,6.46,6.47h10.63c15.64,0,23.56,8.19,23.56,24.36l.21,51.52c0,3.02-1.04,5.6-2.92,7.54ZM106.01,241c0-2.8-.83-5.17-2.71-7.11-1.67-1.94-3.96-2.8-6.67-2.8h-28.99c-2.71,0-4.8.86-6.67,2.8-1.67,1.94-2.71,4.31-2.71,7.11v17.46c0,2.8,1.04,5.17,2.71,7.11,1.88,1.94,3.96,2.8,6.67,2.8h28.99c2.71,0,5-.86,6.67-2.8,1.88-1.94,2.71-4.31,2.71-7.11v-17.46Z"/>
    </g>
    <g>
      <path class="cls-8" d="M70.52,172.47c-1.39,1.39-2.97,2.18-4.95,2.18-2.77,0-5.15-.99-6.93-2.77-1.98-1.78-2.77-4.16-2.77-6.93v-23.56c0-3.76,1.78-5.54,5.54-5.54s5.74,1.78,5.74,5.54v20.39c0,.99.59,1.58,1.58,1.58,2.57,0,3.96,1.19,3.96,3.96,0,1.98-.79,3.56-2.18,5.15ZM151.08,62.41c-1.98,1.98-4.16,2.77-6.93,2.77h-14.65c-6.14,0-9.11,2.97-9.11,8.91v11.28c0,2.77.79,4.95,2.57,6.53,1.78,1.78,3.96,2.57,6.53,2.57h10.29c1.19,0,1.78-.59,1.78-1.58,0-2.77,1.58-4.16,4.55-4.16,4.35,0,6.53,2.38,6.33,7.32-.2,2.57-1.19,4.95-3.17,6.73-1.78,1.78-4.16,2.77-6.73,2.77h-13.06c-6.14,0-9.11,2.97-9.11,9.11v20.19c0,2.77-.99,4.95-2.77,6.73s-3.96,2.77-6.73,2.77c-4.95,0-7.32-2.18-7.32-6.53,0-2.97,1.39-4.55,4.16-4.55,1.19,0,1.58-.4,1.58-1.58v-17.02c0-6.14-2.97-9.11-9.11-9.11h-32.66c-2.57,0-4.95-.99-6.73-2.77-1.98-1.78-2.97-4.16-2.97-6.73,0-4.95,2.18-7.32,6.73-7.32,2.97,0,4.55,1.39,4.55,4.16,0,.99.59,1.58,1.58,1.58h29.49c2.57,0,4.75-.79,6.53-2.57,1.78-1.58,2.57-3.76,2.57-6.53v-11.28c0-5.94-2.97-8.91-9.11-8.91h-32.86c-2.57,0-4.95-.79-6.73-2.77-1.78-1.98-2.77-4.35-2.77-6.93,0-4.75,2.18-7.13,6.53-7.13,2.97,0,4.55,1.39,4.55,3.96,0,.99.59,1.58,1.58,1.58h29.69c6.14,0,9.11-2.97,9.11-8.91v-13.86c0-3.76,1.98-5.54,5.54-5.54,3.76,0,5.54,1.78,5.54,5.54v13.86c0,5.94,2.97,8.91,9.11,8.91h11.48c.99,0,1.58-.59,1.58-1.58,0-2.57,1.58-3.96,4.55-3.96,4.35,0,6.73,2.38,6.73,7.13,0,2.57-.99,4.95-2.77,6.93Z"/>
      <path class="cls-5" d="M70.52,172.47c-1.39,1.39-2.97,2.18-4.95,2.18-2.77,0-5.15-.99-6.93-2.77-1.98-1.78-2.77-4.16-2.77-6.93v-23.56c0-3.76,1.78-5.54,5.54-5.54s5.74,1.78,5.74,5.54v20.39c0,.99.59,1.58,1.58,1.58,2.57,0,3.96,1.19,3.96,3.96,0,1.98-.79,3.56-2.18,5.15ZM151.08,62.41c-1.98,1.98-4.16,2.77-6.93,2.77h-14.65c-6.14,0-9.11,2.97-9.11,8.91v11.28c0,2.77.79,4.95,2.57,6.53,1.78,1.78,3.96,2.57,6.53,2.57h10.29c1.19,0,1.78-.59,1.78-1.58,0-2.77,1.58-4.16,4.55-4.16,4.35,0,6.53,2.38,6.33,7.32-.2,2.57-1.19,4.95-3.17,6.73-1.78,1.78-4.16,2.77-6.73,2.77h-13.06c-6.14,0-9.11,2.97-9.11,9.11v20.19c0,2.77-.99,4.95-2.77,6.73s-3.96,2.77-6.73,2.77c-4.95,0-7.32-2.18-7.32-6.53,0-2.97,1.39-4.55,4.16-4.55,1.19,0,1.58-.4,1.58-1.58v-17.02c0-6.14-2.97-9.11-9.11-9.11h-32.66c-2.57,0-4.95-.99-6.73-2.77-1.98-1.78-2.97-4.16-2.97-6.73,0-4.95,2.18-7.32,6.73-7.32,2.97,0,4.55,1.39,4.55,4.16,0,.99.59,1.58,1.58,1.58h29.49c2.57,0,4.75-.79,6.53-2.57,1.78-1.58,2.57-3.76,2.57-6.53v-11.28c0-5.94-2.97-8.91-9.11-8.91h-32.86c-2.57,0-4.95-.79-6.73-2.77-1.78-1.98-2.77-4.35-2.77-6.93,0-4.75,2.18-7.13,6.53-7.13,2.97,0,4.55,1.39,4.55,3.96,0,.99.59,1.58,1.58,1.58h29.69c6.14,0,9.11-2.97,9.11-8.91v-13.86c0-3.76,1.98-5.54,5.54-5.54,3.76,0,5.54,1.78,5.54,5.54v13.86c0,5.94,2.97,8.91,9.11,8.91h11.48c.99,0,1.58-.59,1.58-1.58,0-2.57,1.58-3.96,4.55-3.96,4.35,0,6.73,2.38,6.73,7.13,0,2.57-.99,4.95-2.77,6.93Z"/>
    </g>
    <g>
      <path class="cls-7" d="M244.33,293.38l-36.39-36.27c-1.05-1.05-2.34-1.52-3.74-1.52-1.52,0-2.81.47-3.86,1.52l-15.68,15.68c-.58.58-1.4.94-2.34.94-2.11,0-3.28-1.05-3.28-3.28,0-.94.35-1.76.94-2.34l14.86-14.86c2.46-2.46,5.62-3.74,9.24-3.74s7.02,1.29,9.48,3.74l35.45,35.33c.58.7.94,1.4.94,2.46,0,2.22-1.17,3.28-3.28,3.28-.94,0-1.64-.23-2.34-.94ZM237.43,252.19c-1.4,0-1.99-.7-1.99-1.99v-11.12c0-1.29.59-1.99,1.99-1.99,1.29,0,1.99.7,1.99,1.99v11.12c0,1.29-.7,1.99-1.99,1.99ZM246.44,252.19c-1.29,0-1.99-.7-1.99-1.99v-11.12c0-1.29.7-1.99,1.99-1.99s1.99.7,1.99,1.99v11.12c0,1.29-.7,1.99-1.99,1.99Z"/>
      <path class="cls-3" d="M244.33,293.38l-36.39-36.27c-1.05-1.05-2.34-1.52-3.74-1.52-1.52,0-2.81.47-3.86,1.52l-15.68,15.68c-.58.58-1.4.94-2.34.94-2.11,0-3.28-1.05-3.28-3.28,0-.94.35-1.76.94-2.34l14.86-14.86c2.46-2.46,5.62-3.74,9.24-3.74s7.02,1.29,9.48,3.74l35.45,35.33c.58.7.94,1.4.94,2.46,0,2.22-1.17,3.28-3.28,3.28-.94,0-1.64-.23-2.34-.94ZM237.43,252.19c-1.4,0-1.99-.7-1.99-1.99v-11.12c0-1.29.59-1.99,1.99-1.99,1.29,0,1.99.7,1.99,1.99v11.12c0,1.29-.7,1.99-1.99,1.99ZM246.44,252.19c-1.29,0-1.99-.7-1.99-1.99v-11.12c0-1.29.7-1.99,1.99-1.99s1.99.7,1.99,1.99v11.12c0,1.29-.7,1.99-1.99,1.99Z"/>
    </g>
    <g>
      <path class="cls-9" d="M315.98,300.6c-1.73,1.74-3.9,2.62-6.5,2.62h-11.81c-2.49,0-4.66-.87-6.5-2.62-1.84-1.74-2.82-3.92-2.82-6.54v-3.38c0-6.1,3.25-9.26,9.75-9.26h10.72c.97,0,1.95-.33,2.6-1.09.76-.76,1.08-1.63,1.08-2.62v-5.45c0-.98-.43-1.85-1.3-2.62-.87-.76-1.84-1.09-2.82-1.09h-11.26c-6.07,0-9.1-3.05-9.1-9.16v-16.79c0-.98-.33-1.85-1.08-2.62-.76-.76-1.62-1.09-2.6-1.09h-6.93c-2.06,0-3.14-1.09-3.14-3.16s.97-3.05,2.92-3.05h7.69c2.49,0,4.66.87,6.5,2.72,1.84,1.74,2.71,3.92,2.71,6.54v17c0,.98.33,1.85,1.08,2.62.65.76,1.52,1.09,2.6,1.09h11.16c2.82,0,5.2.98,7.04,2.73,1.73,1.85,2.71,4.25,2.71,7.08v21.36c0,2.72-.97,4.9-2.71,6.76ZM312.51,291.23c0-1.09-.33-1.96-1.08-2.62-.65-.76-1.62-1.09-2.6-1.09h-10.72c-1.08,0-1.95.33-2.6,1.09-.76.65-1.08,1.53-1.08,2.62v2.29c0,.98.33,1.85,1.08,2.62.65.76,1.52,1.09,2.6,1.09h10.72c.97,0,1.95-.44,2.6-1.2.76-.76,1.08-1.74,1.08-2.72v-2.07Z"/>
      <path class="cls-4" d="M315.98,300.6c-1.73,1.74-3.9,2.62-6.5,2.62h-11.81c-2.49,0-4.66-.87-6.5-2.62-1.84-1.74-2.82-3.92-2.82-6.54v-3.38c0-6.1,3.25-9.26,9.75-9.26h10.72c.97,0,1.95-.33,2.6-1.09.76-.76,1.08-1.63,1.08-2.62v-5.45c0-.98-.43-1.85-1.3-2.62-.87-.76-1.84-1.09-2.82-1.09h-11.26c-6.07,0-9.1-3.05-9.1-9.16v-16.79c0-.98-.33-1.85-1.08-2.62-.76-.76-1.62-1.09-2.6-1.09h-6.93c-2.06,0-3.14-1.09-3.14-3.16s.97-3.05,2.92-3.05h7.69c2.49,0,4.66.87,6.5,2.72,1.84,1.74,2.71,3.92,2.71,6.54v17c0,.98.33,1.85,1.08,2.62.65.76,1.52,1.09,2.6,1.09h11.16c2.82,0,5.2.98,7.04,2.73,1.73,1.85,2.71,4.25,2.71,7.08v21.36c0,2.72-.97,4.9-2.71,6.76ZM312.51,291.23c0-1.09-.33-1.96-1.08-2.62-.65-.76-1.62-1.09-2.6-1.09h-10.72c-1.08,0-1.95.33-2.6,1.09-.76.65-1.08,1.53-1.08,2.62v2.29c0,.98.33,1.85,1.08,2.62.65.76,1.52,1.09,2.6,1.09h10.72c.97,0,1.95-.44,2.6-1.2.76-.76,1.08-1.74,1.08-2.72v-2.07Z"/>
    </g>
  </g>
</svg>